:SAMPLES-PER-SECOND 30
:FULLY-SPECIFIED
:DEGREES
651
root  -12.9638 35.8824 4.86453 -5.59032 -46.3883 -6.18211
RightUpLeg  -17.3086 -4.98573 -6.73343
RightLeg  44.9845 6.3592 6.44837
RightFoot  -16.6521 0.116512 4.91442
RightToes  -9.31324e-010 0 -3.6325e-017
Spine  21.8279 -1.64133 14.8663
Spine1  0.830181 1.9782 -4.13741
HEad  -33.1864 26.923 -5.7768
LeftShoulder1  0.0627586 3.31507 -26.9152
LeftArm  9.86442 -8.7519 -28.4338
LeftForeArm  -169.961 -69.0058 -157.089
LeftHand  -0.364233 -0.983617 6.76474
RightShoulder  -0.23161 -4.24144 24.0562
RightArm  1.73419 13.843 31.0891
RightForeArm  109.25 80.0049 102.202
RightHand  -0.809877 9.51154 -6.68287
LeftUpLeg  -26.4675 6.96635 0.62732
LeftLeg  74.2565 -0.925722 -2.63349
LeftFoot  -5.20599 0.0491041 -0.33169
LeftToes  8.61288e-010 -5.99147e-011 2.1039e-011
652
root  -13.886 35.745 5.09002 -6.07367 -43.7523 -5.63461
RightUpLeg  -16.3942 -6.09312 -6.67388
RightLeg  47.3858 4.82561 5.26135
RightFoot  -19.0792 0.172699 4.45549
RightToes  -9.31324e-010 0 -3.6325e-017
Spine  23.7969 -1.38882 14.3888
Spine1  0.435271 2.24346 -4.06734
HEad  -37.9616 27.1444 -6.90107
LeftShoulder1  0.125355 3.11782 -26.3664
LeftArm  11.052 -11.8173 -27.4949
LeftForeArm  -166.828 -66.224 -160.256
LeftHand  -0.411643 -1.49014 7.11338
RightShoulder  -0.177952 -4.09567 22.253
RightArm  -1.53406 17.3692 29.9453
RightForeArm  129.495 78.1423 124.19
RightHand  -0.939281 10.0607 -7.4287
LeftUpLeg  -31.2613 7.80126 -0.560782
LeftLeg  70.0959 -1.31823 -3.22766
LeftFoot  -6.21409 0.0452924 -0.169284
LeftToes  8.61288e-010 -5.99147e-011 2.1039e-011
653
root  -14.7554 35.5966 5.341 -5.86038 -41.0818 -5.04053
RightUpLeg  -16.1457 -7.20781 -6.60474
RightLeg  49.481 3.43165 3.94516
RightFoot  -21.3689 0.208359 4.03563
RightToes  -9.31324e-010 0 -3.6325e-017
Spine  24.956 -1.02792 13.796
Spine1  0.145045 2.50942 -4.24029
HEad  -42.6925 27.4597 -7.48117
LeftShoulder1  0.275244 2.621 -24.9116
LeftArm  13.1678 -14.4087 -26.7842
LeftForeArm  -163.793 -63.7551 -162.569
LeftHand  -0.500949 -3.16993 7.04369
RightShoulder  -0.0217212 -3.56008 20.116
RightArm  -4.50557 19.9541 27.6015
RightForeArm  144.7 74.6398 140.6
RightHand  -1.13133 10.9554 -8.41712
LeftUpLeg  -35.3564 7.47651 -1.82472
LeftLeg  62.4868 -2.01375 -3.56008
LeftFoot  -6.56658 0.02341 0.362273
LeftToes  8.61288e-010 -5.99147e-011 2.1039e-011
654
root  -15.6211 35.4433 5.63257 -5.06735 -38.5608 -4.8907
RightUpLeg  -15.6815 -8.33564 -6.06887
RightLeg  50.7951 2.23055 2.56137
RightFoot  -24.2572 0.246482 3.61959
RightToes  -9.31324e-010 0 -3.6325e-017
Spine  26.0274 -0.739103 13.4154
Spine1  -0.731664 2.76125 -4.56594
HEad  -46.7251 27.9496 -7.87543
LeftShoulder1  0.441983 1.98912 -22.9425
LeftArm  16.1732 -16.6232 -25.8332
LeftForeArm  -161.409 -61.4435 -164.376
LeftHand  -0.502827 -3.944 6.51799
RightShoulder  0.0665461 -3.21381 18.0431
RightArm  -6.16341 22.298 25.1028
RightForeArm  154.403 70.5592 150.453
RightHand  -1.38972 11.6595 -9.80309
LeftUpLeg  -37.8161 6.35811 -2.27794
LeftLeg  52.5042 -3.60258 -4.5103
LeftFoot  -5.8549 0.0267233 0.234684
LeftToes  8.61288e-010 -5.99147e-011 2.1039e-011
655
root  -16.4968 35.1878 6.00767 -4.31398 -35.6697 -5.40996
RightUpLeg  -14.7065 -9.98936 -5.16275
RightLeg  52.3994 1.26119 1.37028
RightFoot  -27.0966 0.311495 3.58431
RightToes  -9.31324e-010 0 -3.6325e-017
Spine  27.1371 -0.383282 12.4375
Spine1  -1.63408 2.67276 -3.03077
HEad  -50.3803 28.3975 -8.9484
LeftShoulder1  0.633927 1.14863 -20.4057
LeftArm  19.7122 -17.8147 -25.82
LeftForeArm  -159.489 -59.6704 -165.611
LeftHand  -0.536945 -4.06375 6.86487
RightShoulder  0.107302 -2.99853 15.7599
RightArm  -7.48203 24.7325 21.9142
RightForeArm  159.4 66.875 155.915
RightHand  -1.7408 13.162 -11.2855
LeftUpLeg  -38.6944 3.76768 -1.5688
LeftLeg  43.275 -5.43723 -5.11589
LeftFoot  -4.25116 0.107286 -1.31108
LeftToes  8.61288e-010 -5.99147e-011 2.1039e-011
656
root  -17.4112 34.813 6.54202 -3.75513 -32.673 -6.52101
RightUpLeg  -12.9819 -12.3634 -4.03544
RightLeg  54.2138 0.65789 0.569394
RightFoot  -30.1969 0.367842 3.44711
RightToes  -9.31324e-010 0 -3.6325e-017
Spine  26.6306 -0.0748759 11.6771
Spine1  -0.364857 2.37775 -0.847359
HEad  -54.5973 29.6794 -10.0493
LeftShoulder1  0.706638 0.616188 -17.8351
LeftArm  23.8252 -19.8625 -26.2699
LeftForeArm  -158.538 -58.9855 -166.064
LeftHand  -0.637076 -4.47522 7.781
RightShoulder  0.192735 -2.51138 12.6637
RightArm  -8.84256 26.3486 19.9174
RightForeArm  163.316 63.8038 159.313
RightHand  -1.63291 14.5397 -9.88468
LeftUpLeg  -39.1539 -0.0708355 0.138063
LeftLeg  38.8066 -5.2808 -4.17108
LeftFoot  -1.04332 0.10103 -0.955209
LeftToes  8.61288e-010 -5.99147e-011 2.1039e-011
657
root  -18.3734 34.5657 7.20244 -3.48888 -29.6536 -7.39247
RightUpLeg  -10.1957 -14.5744 -3.07274
RightLeg  54.5523 -0.00223555 -0.422863
RightFoot  -33.2435 0.438834 3.44262
RightToes  -9.31324e-010 0 -3.6325e-017
Spine  26.4159 0.322407 10.7075
Spine1  -0.160651 2.31815 0.619123
HEad  -58.0331 30.6011 -9.17682
LeftShoulder1  0.749877 -0.0356598 -14.327
LeftArm  27.7455 -22.6159 -26.7897
LeftForeArm  -157.957 -59.0151 -166.088
LeftHand  -0.83601 -5.52524 9.15816
RightShoulder  0.232042 -2.21104 10.9784
RightArm  -8.54299 26.9215 17.696
RightForeArm  167.948 60.9108 162.005
RightHand  -1.50663 14.6366 -9.13
LeftUpLeg  -39.0558 -2.37167 0.745447
LeftLeg  38.1228 -4.79006 -3.65689
LeftFoot  4.59805 -0.493177 2.85773
LeftToes  8.61288e-010 -5.99147e-011 2.1039e-011
658
root  -19.362 34.5724 7.93882 -2.72917 -26.085 -7.7086
RightUpLeg  -7.40181 -17.1753 -2.31512
RightLeg  53.0833 -0.782068 -1.52238
RightFoot  -35.393 0.47937 3.38016
RightToes  -9.31324e-010 0 -3.6325e-017
Spine  26.2387 0.93041 9.16402
Spine1  -1.3568 2.39593 1.94748
HEad  -60.864 29.9766 -8.80695
LeftShoulder1  0.758599 -0.630002 -11.0427
LeftArm  30.056 -26.5951 -26.6124
LeftForeArm  -155.952 -59.7097 -165.846
LeftHand  -1.10793 -7.07882 10.6546
RightShoulder  0.283588 -1.84573 9.92883
RightArm  -6.81255 26.7815 15.1491
RightForeArm  173.662 58.2499 164.23
RightHand  -1.29381 15.5112 -7.59892
LeftUpLeg  -39.6004 -4.08787 0.214705
LeftLeg  40.1622 -5.70426 -4.77989
LeftFoot  8.42621 -1.97301 11.1696
LeftToes  8.61288e-010 -5.99147e-011 2.1039e-011
659
root  -20.3712 34.9966 8.57963 -0.819824 -22.041 -7.34863
RightUpLeg  -5.64853 -19.2168 -0.897069
RightLeg  49.1527 -2.50423 -3.41829
RightFoot  -35.662 0.559826 3.73303
RightToes  -9.31324e-010 0 -3.6325e-017
Spine  26.4976 1.65943 7.13622
Spine1  -3.97966 2.47658 3.08045
HEad  -65.7961 28.8631 -9.33841
LeftShoulder1  0.602872 -0.355913 -8.12177
LeftArm  28.7826 -32.2152 -25.3818
LeftForeArm  -152.66 -60.8093 -165.479
LeftHand  -1.04759 -6.63811 10.4549
RightShoulder  0.3341 -1.47171 9.15512
RightArm  -5.322 27.2406 12.727
RightForeArm  -177.245 56.5049 165.964
RightHand  -1.02672 16.6948 -5.84441
LeftUpLeg  -40.1583 -6.23657 0.516207
LeftLeg  39.8683 -7.41593 -6.19629
LeftFoot  7.42231 -1.57852 9.25597
LeftToes  8.61288e-010 -5.99147e-011 2.1039e-011
660
root  -21.2652 36.1038 9.05174 2.43661 -18.7487 -5.54256
RightUpLeg  -5.29496 -19.8791 0.46857
RightLeg  41.3467 -5.37707 -5.31463
RightFoot  -32.4872 0.445276 3.55288
RightToes  -9.31324e-010 0 -3.6325e-017
Spine  27.06 2.63266 5.38279
Spine1  -7.33358 3.3703 0.752819
HEad  -70.6432 24.9071 -9.22279
LeftShoulder1  0.49773 -0.796307 -3.59129
LeftArm  23.217 -38.9973 -23.3637
LeftForeArm  -153.567 -63.9222 -163.517
LeftHand  -1.13522 -7.45381 10.5377
RightShoulder  0.460974 -0.537637 8.12071
RightArm  -5.14044 27.8502 9.70289
RightForeArm  -168.828 57.3047 166.285
RightHand  -1.55367 21.6095 -7.10519
LeftUpLeg  -39.0044 -6.07463 -0.716785
LeftLeg  32.7165 -11.0497 -7.18118
LeftFoot  9.5239 -1.49513 7.8138
LeftToes  8.61288e-010 -5.99147e-011 2.1039e-011
661
root  -22.0626 37.4018 9.503 6.68318 -17.1346 -3.80421
RightUpLeg  -4.94909 -20.5195 1.80545
RightLeg  30.6235 -7.25716 -5.12547
RightFoot  -27.6281 0.219513 2.84127
RightToes  -9.31324e-010 0 -3.6325e-017
Spine  27.414 3.16751 6.13957
Spine1  -11.0704 4.48655 -6.13849
HEad  -74.8567 21.6579 -10.0639
LeftShoulder1  0.282676 -1.56106 3.19777
LeftArm  12.8442 -46.448 -19.0236
LeftForeArm  -169.076 -72.7684 -150.555
LeftHand  -2.41735 -12.4516 15.724
RightShoulder  0.634919 0.970138 6.39045
RightArm  -9.23129 31.1412 4.31839
RightForeArm  -175.314 65.6228 159.966
RightHand  -3.77235 33.1948 -11.4846
LeftUpLeg  -36.8368 -5.08342 -1.45349
LeftLeg  21.5582 -15.4092 -6.28749
LeftFoot  13.0304 -0.969738 4.1797
LeftToes  8.61288e-010 -5.99147e-011 2.1039e-011
662
root  -22.817 38.4484 10.0207 10.8507 -17.3956 -2.2043
RightUpLeg  -3.65298 -19.7281 1.93105
RightLeg  19.4562 -9.58323 -2.55051
RightFoot  -24.3412 0.141424 2.70218
RightToes  -9.31324e-010 0 -3.6325e-017
Spine  26.8035 3.89093 8.04287
Spine1  -13.6978 5.91997 -15.6866
HEad  -76.5524 18.8522 -10.379
LeftShoulder1  0.188168 -2.0262 5.442
LeftArm  -2.673 -56.8492 -5.66318
LeftForeArm  114.738 -80.8835 -73.6663
LeftHand  -4.17744 -25.1866 16.5316
RightShoulder  0.762978 3.72181 3.00193
RightArm  -15.1087 33.7725 -2.33972
RightForeArm  144.077 78.5577 121.021
RightHand  -6.96307 37.1819 -19.2237
LeftUpLeg  -34.3157 -4.26112 -1.73048
LeftLeg  9.64297 -19.1798 -3.2211
LeftFoot  15.92 -0.0618847 -0.198821
LeftToes  8.61288e-010 -5.99147e-011 2.1039e-011
663
root  -23.5357 39.017 10.5883 14.2142 -19.4499 -1.71266
RightUpLeg  -1.96022 -10.5159 1.40681
RightLeg  13.0424 -20.603 -0.0696763
RightFoot  -24.1587 0.22426 3.45287
RightToes  -9.31324e-010 0 -3.6325e-017
Spine  25.1952 5.00472 7.90174
Spine1  -14.9217 6.85161 -20.0631
HEad  -76.7688 19.8774 -13.7088
LeftShoulder1  0.509612 -0.962493 -3.07679
LeftArm  -28.7075 -67.2631 26.7468
LeftForeArm  60.5369 -63.7864 -16.2591
LeftHand  -0.569193 -26.3435 1.16071
RightShoulder  0.558435 7.10047 -3.86374
RightArm  -19.124 41.4937 -7.04211
RightForeArm  47.9762 65.7332 22.5795
RightHand  -8.12855 27.5899 -28.1826
LeftUpLeg  -33.0406 -2.61411 -1.17679
LeftLeg  3.26445 -23.084 -1.11757
LeftFoot  15.3763 0.267685 -1.5248
LeftToes  8.61288e-010 -5.99147e-011 2.1039e-011
